<svg width="142" height="33" xmlns="http://www.w3.org/2000/svg">

 <g>
  <title>background</title>
  <rect fill="none" id="canvas_background" height="402" width="582" y="-1" x="-1"/>
 </g>
 <g>
  <title>Layer 1</title>
  <path id="svg_1" fill="white" d="m0,6.73727l0,25.87113l3.75838,0l0,-18.7338l0.24289,0l7.72133,18.6959l3.1192,0l7.7213,-18.6833l0.2429,0l0,18.7212l3.7583,0l0,-25.87113l-4.7938,0l-8.3349,20.11073l-0.3068,0l-8.33495,-20.11073l-4.79385,0z"/>
  <path id="svg_2" fill="white" d="m41.1313,33c4.2825,0 7.3122,-2.0843 8.1815,-5.2424l-3.6178,-0.6443c-0.6903,1.8317 -2.3522,2.7665 -4.5254,2.7665c-3.2726,0 -5.4714,-2.097 -5.5736,-5.8362l13.9597,0l0,-1.339c0,-7.011 -4.2442,-9.7522 -8.6929,-9.7522c-5.4714,0 -9.0764,4.1182 -9.0764,10.0806c0,6.0257 3.5539,9.967 9.3449,9.967zm-5.5225,-11.786c0.1534,-2.7539 2.1732,-5.1414 5.2796,-5.1414c2.9658,0 4.9089,2.1728 4.9217,5.1414l-10.2013,0z"/>
  <path id="svg_3" fill="white" d="m68.5106,17.9422c-0.7926,-3.0191 -3.1831,-4.9898 -7.4273,-4.9898c-4.4359,0 -7.5807,2.3117 -7.5807,5.7477c0,2.7539 1.6874,4.5856 5.3691,5.3941l3.3238,0.72c1.8919,0.4169 2.774,1.2506 2.774,2.4633c0,1.5033 -1.6235,2.6781 -4.1291,2.6781c-2.2883,0 -3.7584,-0.9727 -4.2186,-2.8802l-3.6945,0.5558c0.6392,3.436 3.5283,5.3688 7.9387,5.3688c4.7427,0 8.0281,-2.4886 8.0281,-6.0004c0,-2.7412 -1.7642,-4.434 -5.3691,-5.2551l-3.1192,-0.7074c-2.1605,-0.5053 -3.0937,-1.2253 -3.0809,-2.5391c-0.0128,-1.4906 1.6235,-2.5517 3.7967,-2.5517c2.3778,0 3.4772,1.3011 3.9246,2.6023l3.4644,-0.6064z"/>
  <path id="svg_4" fill="white" d="m82.2625,13.2051l-4.0268,0l0,-4.64877l-3.8223,0l0,4.64877l-2.8763,0l0,3.0317l2.8763,0l0,11.4576c-0.0128,3.5244 2.7101,5.2298 5.7271,5.1666c1.2144,-0.0126 2.0326,-0.24 2.48,-0.4042l-0.6903,-3.1202c-0.2557,0.0505 -0.7287,0.1642 -1.3423,0.1642c-1.24,0 -2.3522,-0.4042 -2.3522,-2.5896l0,-10.6744l4.0268,0l0,-3.0317z"/>
  <path id="svg_5" fill="white" d="m94.5508,33c5.5352,0 9.1532,-4.0045 9.1532,-10.0049c0,-6.0382 -3.618,-10.0427 -9.1532,-10.0427c-5.5353,0 -9.1531,4.0045 -9.1531,10.0427c0,6.0004 3.6178,10.0049 9.1531,10.0049zm0.0128,-3.1707c-3.6178,0 -5.3052,-3.1202 -5.3052,-6.8468c0,-3.7139 1.6874,-6.872 5.3052,-6.872c3.5922,0 5.2796,3.1581 5.2796,6.872c0,3.7266 -1.6874,6.8468 -5.2796,6.8468z"/>
  <text font-weight="bold" font-style="normal" xml:space="preserve" text-anchor="start" font-family="Arvo, sans-serif" font-size="9" id="svg_12" y="8.584442" x="106.152812" stroke-width="0" fill="white">WORLD</text>
 </g>
</svg>